HIERARCHY
ROOT SpineBase
{
  OFFSET 0.000000 0.000000 0.000000
  CHANNELS 6 Xposition Yposition Zposition Zrotation Xrotation Yrotation
  JOINT SpineMid
  {
    OFFSET 0.000000 30.119626 0.000000
    CHANNELS 3 Zrotation Xrotation Yrotation
    JOINT SpineShoulder
    {
      OFFSET -0.117207 22.321491 -1.097291
      CHANNELS 3 Zrotation Xrotation Yrotation
      JOINT Neck
      {
        OFFSET -0.057623 7.394150 -0.721481
        CHANNELS 3 Zrotation Xrotation Yrotation
        JOINT Head
        {
          OFFSET -0.279326 11.269851 0.390967
          CHANNELS 3 Zrotation Xrotation Yrotation
          End Site
          {
            OFFSET 0 0 0
          }
        }
      }
      JOINT ShoulderLeft
      {
        OFFSET -17.295740 -3.073687 6.548305
        CHANNELS 3 Zrotation Xrotation Yrotation
        JOINT ElbowLeft
        {
          OFFSET -2.895022 -27.395702 1.712341
          CHANNELS 3 Zrotation Xrotation Yrotation
          JOINT WristLeft
          {
            OFFSET 0.853382 -19.491815 -7.198561
            CHANNELS 3 Zrotation Xrotation Yrotation
            JOINT HandLeft
            {
              OFFSET 1.407232 -4.599481 -2.712284
              CHANNELS 3 Zrotation Xrotation Yrotation
              JOINT HandTipLeft
              {
                OFFSET 1.012787 -5.247305 -1.831789
                CHANNELS 3 Zrotation Xrotation Yrotation
                End Site
                {
                  OFFSET 0 0 0
                }
              }
              JOINT ThumbLeft
              {
                OFFSET -2.868535 -0.469186 -2.771022
                CHANNELS 3 Zrotation Xrotation Yrotation
                End Site
                {
                  OFFSET 0 0 0
                }
              }
            }
          }
        }
      }
      JOINT ShoulderRight
      {
        OFFSET 16.729388 -3.108956 -8.402084
        CHANNELS 3 Zrotation Xrotation Yrotation
        JOINT ElbowRight
        {
          OFFSET 5.648932 -23.832797 -3.156449
          CHANNELS 3 Zrotation Xrotation Yrotation
          JOINT WristRight
          {
            OFFSET -4.986610 -18.811980 -7.391819
            CHANNELS 3 Zrotation Xrotation Yrotation
            JOINT HandRight
            {
              OFFSET -3.023627 -5.820540 -0.354773
              CHANNELS 3 Zrotation Xrotation Yrotation
              JOINT HandTipRight
              {
                OFFSET -1.216135 -6.234205 0.605044
                CHANNELS 3 Zrotation Xrotation Yrotation
                End Site
                {
                  OFFSET 0 0 0
                }
              }
              JOINT ThumbRight
              {
                OFFSET -2.509535 2.115173 -3.576467
                CHANNELS 3 Zrotation Xrotation Yrotation
                End Site
                {
                  OFFSET 0 0 0
                }
              }
            }
          }
        }
      }
    }
  }
  JOINT HipLeft
  {
    OFFSET -5.804078 0.327868 -1.096294
    CHANNELS 3 Zrotation Xrotation Yrotation
    JOINT KneeLeft
    {
      OFFSET 2.425477 -34.711087 6.159862
      CHANNELS 3 Zrotation Xrotation Yrotation
      JOINT AnkleLeft
      {
        OFFSET 3.126873 -31.111498 5.905188
        CHANNELS 3 Zrotation Xrotation Yrotation
        JOINT FootLeft
        {
          OFFSET -1.924887 -8.308547 -4.957182
          CHANNELS 3 Zrotation Xrotation Yrotation
          End Site
          {
            OFFSET 0 0 0
          }
        }
      }
    }
  }
  JOINT HipRight
  {
    OFFSET 5.430782 1.056031 -5.841373
    CHANNELS 3 Zrotation Xrotation Yrotation
    JOINT KneeRight
    {
      OFFSET 8.610699 -32.268290 -0.041108
      CHANNELS 3 Zrotation Xrotation Yrotation
      JOINT AnkleRight
      {
        OFFSET 3.084996 -34.087144 4.131300
        CHANNELS 3 Zrotation Xrotation Yrotation
        JOINT FootRight
        {
          OFFSET -3.805649 -5.277002 -10.383933
          CHANNELS 3 Zrotation Xrotation Yrotation
          End Site
          {
            OFFSET 0 0 0
          }
        }
      }
    }
  }
}
MOTION
Frames: 14
Frame Time: 0.033333
21.459178 76.632752 386.469924 -0.000000 0.000000 22.896920 -0.000000 0.000000 -22.896920 -0.000000 0.000000 0.000000 -0.000000 0.000000 0.000000 0.000000 0.000000 0.000000 -0.000000 0.000000 0.000000 -0.000000 0.000000 0.000000 -0.000000 0.000000 0.000000 -0.000000 0.000000 0.000000 0.000000 0.000000 0.000000 0.000000 0.000000 0.000000 -0.000000 0.000000 0.000000 -0.000000 0.000000 0.000000 -0.000000 0.000000 0.000000 -0.000000 0.000000 0.000000 0.000000 0.000000 0.000000 0.000000 0.000000 0.000000 -0.000000 0.000000 -22.896920 -0.000000 0.000000 0.000000 -0.000000 0.000000 0.000000 0.000000 0.000000 0.000000 -0.000000 0.000000 -22.896920 -0.000000 0.000000 0.000000 -0.000000 0.000000 0.000000 0.000000 0.000000 0.000000
21.527568 76.613659 386.477995 0.126157 -0.165347 22.939529 -0.051735 0.201442 -22.939256 -0.000000 0.000000 0.000000 -0.000000 0.000000 0.000000 0.000000 0.000000 0.000000 -0.000000 0.000000 0.000000 -0.000000 0.000000 0.000000 -0.577151 -1.060991 0.010450 0.577443 1.060832 -0.021140 0.000000 0.000000 0.000000 0.000000 0.000000 0.000000 -0.000000 0.000000 0.000000 -1.176951 0.285125 0.388387 -2.127432 1.688904 -1.145953 1.682407 1.620787 0.004708 0.000000 0.000000 0.000000 0.000000 0.000000 0.000000 -0.051735 0.201442 -22.939256 -0.000000 0.000000 0.000000 -1.126445 3.655786 -0.136289 0.000000 0.000000 0.000000 -0.051735 0.201442 -22.939256 -0.000000 0.000000 0.000000 0.835478 -2.688211 0.331629 0.000000 0.000000 0.000000
21.583548 76.596619 386.472433 0.234409 -0.306994 22.998495 -0.095836 0.374176 -22.997554 -0.000000 0.000000 0.000000 -0.000000 0.000000 0.000000 0.000000 0.000000 0.000000 -0.000000 0.000000 0.000000 0.313112 0.824074 -0.081582 -1.496931 -2.954500 0.087099 0.590493 3.350042 0.401162 0.000000 0.000000 0.000000 0.000000 0.000000 0.000000 -0.000000 0.000000 0.000000 -2.097545 0.465798 0.704784 -3.495121 3.339586 -2.120769 2.563532 3.142561 0.114712 0.000000 0.000000 0.000000 0.000000 0.000000 0.000000 -0.095836 0.374176 -22.997554 -0.000000 0.000000 0.000000 -1.945390 6.350737 -0.196793 0.000000 0.000000 0.000000 -0.095836 0.374176 -22.997554 -0.000000 0.000000 0.000000 1.557782 -4.963919 0.645457 0.000000 0.000000 0.000000
21.627120 76.581632 386.453237 0.324758 -0.424942 23.073499 -0.132246 0.518221 -23.071697 -0.000000 0.000000 0.000000 -0.000000 0.000000 0.000000 0.000000 0.000000 0.000000 -0.000000 0.000000 0.000000 0.410630 1.117473 -0.106330 -2.228942 -4.314324 0.111100 0.837537 4.919524 0.597551 0.000000 0.000000 0.000000 0.000000 0.000000 0.000000 -0.000000 0.000000 0.000000 -2.764600 0.547399 0.946760 -4.063966 4.864213 -2.952586 2.618652 4.537173 0.268687 0.000000 0.000000 0.000000 0.000000 0.000000 0.000000 -0.132246 0.518221 -23.071697 -0.000000 0.000000 0.000000 -2.467863 8.108544 -0.223534 0.000000 0.000000 0.000000 -0.132246 0.518221 -23.071697 -0.000000 0.000000 0.000000 2.131627 -6.737038 0.912561 0.000000 0.000000 0.000000
21.658283 76.568698 386.420407 0.397203 -0.519194 23.164200 -0.160962 0.633578 -23.161511 -0.000000 0.000000 0.000000 -0.000000 0.000000 0.000000 0.000000 0.000000 0.000000 -0.000000 0.000000 0.000000 0.468684 1.332084 -0.119682 -2.942811 -5.583623 0.123936 1.040325 6.425537 0.802348 0.000000 0.000000 0.000000 0.000000 0.000000 0.000000 -0.000000 0.000000 0.000000 -3.181517 0.534290 1.113378 -3.848489 6.205368 -3.674590 1.879144 5.779957 0.417057 0.000000 0.000000 0.000000 0.000000 0.000000 0.000000 -0.160962 0.633578 -23.161511 -0.000000 0.000000 0.000000 -2.701239 8.956451 -0.242990 0.000000 0.000000 0.000000 -0.160962 0.633578 -23.161511 -0.000000 0.000000 0.000000 2.526565 -7.939479 1.106458 0.000000 0.000000 0.000000
21.677038 76.557817 386.373944 0.451746 -0.589751 23.270240 -0.182027 0.720237 -23.266771 -0.000000 0.000000 0.000000 -0.000000 0.000000 0.000000 0.000000 0.000000 0.000000 -0.000000 0.000000 0.000000 0.487236 1.468083 -0.121311 -3.632749 -6.754010 0.127422 1.186304 7.870054 1.025252 0.000000 0.000000 0.000000 0.000000 0.000000 0.000000 -0.000000 0.000000 0.000000 -3.351832 0.429672 1.204926 -2.899661 7.330078 -4.314941 0.412463 6.855142 0.524389 0.000000 0.000000 0.000000 0.000000 0.000000 0.000000 -0.182027 0.720237 -23.266771 -0.000000 0.000000 0.000000 -2.649052 8.910029 -0.267316 0.000000 0.000000 0.000000 -0.182027 0.720237 -23.266771 -0.000000 0.000000 0.000000 2.720492 -8.527069 1.207157 0.000000 0.000000 0.000000
21.675084 76.555658 386.307813 0.473737 -0.642815 23.369506 -0.179922 0.777984 -23.365627 -0.000000 0.000000 0.000000 -0.000000 0.000000 0.000000 0.000000 0.000000 0.000000 -0.000000 0.000000 0.000000 0.438780 1.529075 -0.100442 -4.689474 -7.826034 0.336174 1.830453 9.246893 0.942128 0.000000 0.000000 0.000000 0.000000 0.000000 0.000000 -0.838808 0.611410 0.260758 -2.192817 -0.524600 0.879837 -0.624309 8.629166 -5.089262 -3.036279 8.520230 0.490021 0.000000 0.000000 0.000000 0.000000 0.000000 0.000000 -0.179922 0.777984 -23.365627 -0.000000 0.000000 0.000000 -2.419746 7.184703 -0.067967 0.000000 0.000000 0.000000 -0.179922 0.777984 -23.365627 -0.000000 0.000000 0.000000 1.293546 -4.207419 0.584681 0.000000 0.000000 0.000000
21.671591 76.546151 386.224159 0.493996 -0.655632 23.547313 -0.190961 0.798381 -23.543156 -0.000000 0.000000 0.000000 0.489027 -0.702720 -0.031387 0.000000 0.000000 0.000000 -0.000000 0.000000 0.000000 0.368492 1.477740 -0.075768 -4.973626 -8.480755 0.248498 -0.074415 11.165514 2.324504 0.000000 0.000000 0.000000 0.000000 0.000000 0.000000 -1.214881 0.820279 0.364602 -1.340608 -1.094803 0.681308 2.416069 9.178297 -5.668735 -6.317412 9.768928 0.365687 0.000000 0.000000 0.000000 0.000000 0.000000 0.000000 -0.190961 0.798381 -23.543156 -0.000000 0.000000 0.000000 -1.372018 4.602969 -0.188156 0.000000 0.000000 0.000000 -0.880798 0.347646 -23.719661 0.450202 0.690155 0.180692 2.184811 -6.937804 0.971442 0.000000 0.000000 0.000000
21.651895 76.535167 386.137788 0.494750 -0.656408 23.704030 -0.189154 0.799913 -23.699876 -0.000000 0.000000 0.000000 0.617277 -0.807750 -0.037088 0.000000 0.000000 0.000000 -0.000000 0.000000 0.000000 0.262021 1.380177 -0.039315 -5.482096 -9.038683 0.303995 0.568623 12.268860 2.246632 0.000000 0.000000 0.000000 0.000000 0.000000 0.000000 -1.568866 1.089482 0.481908 -0.439716 -1.754126 0.456549 4.665177 8.902258 -5.700089 -9.274755 10.714682 0.024045 0.000000 0.000000 0.000000 0.000000 0.000000 0.000000 -0.189154 0.799913 -23.699876 -0.000000 0.000000 0.000000 -0.000000 0.000000 0.000000 0.000000 0.000000 0.000000 -0.870545 0.260405 -23.898150 0.404372 0.769293 0.201865 1.941220 -6.243672 0.900526 0.000000 0.000000 0.000000
21.636397 76.529999 386.050526 0.497738 -0.634326 23.842000 -0.198886 0.781377 -23.837888 -0.000000 0.000000 0.000000 0.733756 -0.895367 -0.041919 0.000000 0.000000 0.000000 -0.000000 0.000000 0.000000 0.151155 1.211721 -0.004351 -5.749307 -10.239085 -0.031460 -0.071665 16.274106 3.617542 0.000000 0.000000 0.000000 0.000000 0.000000 0.000000 -1.896251 1.349835 0.594863 0.309876 -2.262314 0.254935 6.083707 9.353993 -6.054951 -10.682840 8.917533 0.330996 0.000000 0.000000 0.000000 0.000000 0.000000 0.000000 -0.198886 0.781377 -23.837888 -0.000000 0.000000 0.000000 2.134208 -3.951982 -0.291160 0.000000 0.000000 0.000000 -0.868525 0.168853 -24.053781 0.361798 0.832273 0.218818 1.280779 -4.316846 0.700129 0.000000 0.000000 0.000000
21.595050 76.524679 385.972017 0.462140 -0.599718 24.010914 -0.178141 0.735863 -24.007351 -0.000000 0.000000 0.000000 0.834222 -0.993956 -0.046346 0.000000 0.000000 0.000000 0.813395 0.297345 0.017325 -0.721851 0.731531 -0.010596 -5.894072 -11.503039 -0.477839 0.096641 19.314542 4.351717 0.000000 0.000000 0.000000 0.000000 0.000000 0.000000 -2.118267 1.564371 0.682064 0.795618 -2.602330 0.109156 7.173768 9.300291 -6.139043 -10.894396 6.915775 0.684161 0.000000 0.000000 0.000000 0.000000 0.000000 0.000000 -0.178141 0.735863 -24.007351 -0.000000 0.000000 0.000000 1.065715 1.108652 -0.899756 0.000000 0.000000 0.000000 -0.780364 0.055580 -24.234202 0.269900 0.867523 0.228967 2.517557 -7.960183 1.145290 0.000000 0.000000 0.000000
21.522600 76.519314 385.917367 0.376922 -0.566851 24.182406 -0.111653 0.671506 -24.179888 -0.000000 0.000000 0.000000 1.018323 -1.035419 -0.051795 0.000000 0.000000 0.000000 0.944355 0.286798 0.026384 -0.906238 0.572252 -0.007635 -5.960605 -12.923594 -1.037338 0.085476 19.903018 4.647284 0.000000 0.000000 0.000000 0.000000 0.000000 0.000000 -2.275386 1.794856 0.764501 1.208374 -3.024795 -0.010075 7.073189 8.845599 -5.757087 -10.277444 5.987535 0.772227 0.000000 0.000000 0.000000 0.000000 0.000000 0.000000 -0.111653 0.671506 -24.179888 -0.000000 0.000000 0.000000 1.101285 1.738960 -1.069374 0.000000 0.000000 0.000000 -0.559171 -0.071579 -24.407280 0.100455 0.861597 0.228980 4.977351 -14.766946 2.177029 0.000000 0.000000 0.000000
21.444610 76.522738 385.856730 0.283183 -0.507164 24.383068 -0.048556 0.578833 -24.381570 -0.000000 0.000000 0.000000 1.221770 -1.074535 -0.057566 0.000000 0.000000 0.000000 1.062433 0.285165 0.033668 -1.062613 -0.284491 -0.038950 -5.892134 -13.859521 -1.643932 1.364564 18.484500 3.725322 0.000000 0.000000 0.000000 0.000000 0.000000 0.000000 -2.350046 1.964370 0.819338 1.460334 -3.337505 -0.086612 6.837099 8.201566 -5.267429 -8.669627 6.045902 0.767010 0.000000 0.000000 0.000000 0.000000 0.000000 0.000000 -0.048556 0.578833 -24.381570 -0.000000 0.000000 0.000000 1.014639 2.155617 -1.113687 0.000000 0.000000 0.000000 -0.383666 -0.249860 -24.618969 -0.040579 0.892963 0.238677 9.300193 -25.276247 4.554776 0.000000 0.000000 0.000000
21.375278 76.531033 385.781536 0.204751 -0.428582 24.644429 -0.007391 0.474921 -24.643633 -0.000000 0.000000 0.000000 1.459807 -1.105299 -0.063961 0.000000 0.000000 0.000000 1.212351 0.385562 0.030997 -1.212587 -0.384820 -0.039149 -5.706761 -14.799877 -2.121839 1.881724 17.884105 3.372002 0.000000 0.000000 0.000000 0.000000 0.000000 0.000000 -2.341470 2.030073 0.834937 1.523708 -3.487409 -0.105024 6.236392 7.361592 -4.642805 -7.829248 6.132231 0.554509 0.000000 0.000000 0.000000 0.000000 0.000000 0.000000 -0.007391 0.474921 -24.643633 -0.000000 0.000000 0.000000 0.893682 2.353202 -1.085452 0.000000 0.000000 0.000000 -0.332363 -0.491538 -24.914325 -0.112410 1.013416 0.271639 11.606233 -29.976855 5.813991 0.000000 0.000000 0.000000
